<svg xmlns="http://www.w3.org/2000/svg" fill="none" viewBox="0 0 43 47">
  <path fill="#14B8A6" fill-rule="evenodd" d="M19.81 44.82a2.19 2.19 0 0 0 4.38 0l.1-27.47 3.23 2.48c.8.77 2.08.77 2.87 0 .79-.78.79-2.03 0-2.8l-3.75-3.68h5.52c1.02 0 1.84-.8 1.84-1.8s-.82-1.8-1.84-1.8h-5.52L30.45 6c.76-.74.76-1.93 0-2.67a1.96 1.96 0 0 0-2.72 0L23.9 7.08V1.87C23.9.84 23.05 0 22 0c-1.05 0-1.9.84-1.9 1.87v5.2l-3.83-3.73a1.96 1.96 0 0 0-2.72 0 1.86 1.86 0 0 0 0 2.67l3.81 3.74h-5.52c-1.02 0-1.84.8-1.84 1.8s.82 1.8 1.84 1.8h5.52l-3.75 3.67c-.79.78-.79 2.03 0 2.8.8.78 2.08.78 2.87 0l3.23-2.47.1 27.47Zm1.98-36.4a3.6 3.6 0 0 0 0 7.2h.15a3.6 3.6 0 0 0 0-7.2h-.15ZM7.82 12.6a1.96 1.96 0 1 0-3.91 0v13.2a5.86 5.86 0 0 0-2.2 9.69c.63.62 1.38 1.1 2.2 1.38v8.17a1.96 1.96 0 1 0 3.9 0v-8.17a5.86 5.86 0 0 0 2.2-9.7 5.86 5.86 0 0 0-2.2-1.38V12.6Zm-.57 17.35a1.95 1.95 0 1 0-2.77 2.77 1.95 1.95 0 1 0 2.77-2.77ZM39.1 12.6a1.96 1.96 0 1 0-3.92 0v13.2A5.86 5.86 0 0 0 33 35.48c.62.62 1.38 1.1 2.2 1.38v8.17a1.96 1.96 0 1 0 3.9 0v-8.17a5.86 5.86 0 0 0 2.2-9.7 5.86 5.86 0 0 0-2.2-1.38V12.6Zm-.58 20.12a1.95 1.95 0 1 1-2.77-2.77 1.95 1.95 0 1 1 2.77 2.77Z" clip-rule="evenodd"/>
</svg>
