<svg xmlns="http://www.w3.org/2000/svg" fill="none" viewBox="0 0 97 18">
  <path fill="#F90" d="M6 17.3v-3h2v3H6Z"/>
  <path fill="#F90" d="M0 14.5 7.18 0l7.32 14.5h-3.59v-2.3H9.33v2.3H8.04V7.18H6.46v7.32h-1.3v-4.3H3.6v4.3H0Z"/>
  <path fill="#000" d="M23 12.08c-.72 0-1.34-.14-1.88-.42a3.18 3.18 0 0 1-1.23-1.17 3.3 3.3 0 0 1-.43-1.7 3.1 3.1 0 0 1 1.6-2.86c.5-.27 1.07-.41 1.7-.41.63 0 1.19.14 1.68.4.48.28.87.66 1.15 1.16a3.5 3.5 0 0 1 .4 2.2h-5.35v-1h4.55l-.59.31a1.74 1.74 0 0 0-.89-1.63 1.83 1.83 0 0 0-.94-.24 1.75 1.75 0 0 0-1.62.91c-.15.28-.23.61-.23 1v.24c0 .38.09.72.26 1.02.18.3.43.52.75.68.32.16.69.24 1.1.24.36 0 .69-.05.97-.17.3-.1.55-.28.77-.52l.8.92c-.28.34-.65.6-1.09.78-.43.18-.92.26-1.48.26Zm30.47-6.56c.5 0 .96.1 1.35.3.4.2.71.5.94.92.22.41.33.94.33 1.59V12h-1.5V8.52c0-.57-.12-1-.37-1.27-.25-.28-.6-.42-1.07-.42-.32 0-.62.07-.87.21-.25.15-.45.36-.59.64-.14.28-.2.64-.2 1.07V12h-1.5V8.52c0-.57-.13-1-.38-1.27-.24-.28-.6-.42-1.06-.42-.33 0-.62.07-.88.21-.25.15-.44.36-.59.64-.13.28-.2.64-.2 1.07V12h-1.5V5.6h1.43v1.7l-.26-.5c.22-.42.53-.74.94-.96.42-.21.89-.32 1.42-.32.6 0 1.12.15 1.56.44.44.3.74.75.88 1.35l-.58-.2c.2-.49.55-.87 1.03-1.16a3.18 3.18 0 0 1 1.67-.43Zm12.63 0c.51 0 .96.1 1.36.3.4.2.7.5.93.92.23.41.34.94.34 1.59V12h-1.5V8.52c0-.57-.13-1-.37-1.27-.25-.28-.6-.42-1.07-.42-.33 0-.62.07-.88.21-.25.15-.44.36-.59.64-.13.28-.2.64-.2 1.07V12h-1.5V8.52c0-.57-.12-1-.37-1.27-.25-.28-.6-.42-1.07-.42-.33 0-.62.07-.88.21-.24.15-.44.36-.58.64-.14.28-.2.64-.2 1.07V12h-1.5V5.6h1.42v1.7l-.25-.5c.21-.42.53-.74.93-.96.42-.21.9-.32 1.42-.32.6 0 1.12.15 1.56.44.45.3.74.75.89 1.35l-.6-.2c.22-.49.56-.87 1.04-1.16a3.18 3.18 0 0 1 1.67-.43Zm7.57 6.56c-.71 0-1.34-.14-1.87-.42a3.18 3.18 0 0 1-1.24-1.17 3.3 3.3 0 0 1-.43-1.7 3.1 3.1 0 0 1 1.6-2.86c.5-.27 1.07-.41 1.71-.41.62 0 1.18.14 1.67.4.49.28.87.66 1.15 1.16a3.5 3.5 0 0 1 .4 2.2h-5.34v-1h4.54l-.58.31a1.74 1.74 0 0 0-.89-1.63 1.83 1.83 0 0 0-.95-.24 1.75 1.75 0 0 0-1.62.91c-.15.28-.23.61-.23 1v.24c0 .38.09.72.27 1.02.17.3.42.52.74.68.32.16.69.24 1.1.24.36 0 .69-.05.98-.17.28-.1.54-.28.76-.52l.8.92c-.28.34-.64.6-1.08.78-.44.18-.93.26-1.5.26Zm4.45-.08V5.6h1.43v1.76l-.17-.52c.2-.43.5-.76.9-.98.42-.23.93-.34 1.55-.34v1.43a.74.74 0 0 0-.18-.03h-.17c-.57 0-1.02.16-1.36.5-.33.32-.5.82-.5 1.47V12h-1.5Zm7.86.08c-.67 0-1.27-.14-1.8-.42a3.2 3.2 0 0 1-1.67-2.86 3.2 3.2 0 0 1 1.67-2.86 3.78 3.78 0 0 1 1.8-.42c.63 0 1.17.13 1.65.38s.84.62 1.09 1.1l-1.15.68a1.83 1.83 0 0 0-1.6-.89c-.37 0-.7.08-1 .24-.3.16-.52.4-.7.7-.16.3-.24.65-.24 1.07 0 .41.08.77.25 1.08.17.3.4.52.7.68a2.06 2.06 0 0 0 1.88.02c.28-.14.51-.36.7-.67l1.16.67c-.25.48-.61.86-1.1 1.12a3.4 3.4 0 0 1-1.64.38Zm6.95 0c-.7 0-1.33-.14-1.87-.42a3.18 3.18 0 0 1-1.23-1.17 3.3 3.3 0 0 1-.44-1.7A3.1 3.1 0 0 1 91 5.94c.5-.27 1.08-.41 1.72-.41.62 0 1.18.14 1.66.4.5.28.88.66 1.16 1.16a3.5 3.5 0 0 1 .4 2.2h-5.35v-1h4.55l-.59.31a1.74 1.74 0 0 0-.89-1.63 1.83 1.83 0 0 0-.94-.24 1.75 1.75 0 0 0-1.62.91c-.16.28-.23.61-.23 1v.24c0 .38.09.72.26 1.02.18.3.43.52.75.68.32.16.68.24 1.1.24.36 0 .68-.05.97-.17.29-.1.55-.28.77-.52l.8.92c-.28.34-.65.6-1.09.78-.43.18-.93.26-1.49.26Z"/>
  <path fill="#F90" d="M30.39 12.08c-.67 0-1.27-.14-1.8-.42a3.2 3.2 0 0 1-1.67-2.86 3.2 3.2 0 0 1 1.67-2.86 3.78 3.78 0 0 1 1.8-.42c.62 0 1.17.13 1.64.38.48.25.85.62 1.1 1.1l-1.16.68a1.83 1.83 0 0 0-1.6-.89c-.36 0-.7.08-.99.24-.3.16-.53.4-.7.7-.16.3-.25.65-.25 1.07 0 .41.09.77.25 1.08.17.3.4.52.7.68a2.06 2.06 0 0 0 1.88.02c.28-.14.52-.36.71-.67l1.15.67c-.24.48-.6.86-1.09 1.12a3.4 3.4 0 0 1-1.64.38Zm6.82 0a3.6 3.6 0 0 1-1.75-.42A3.23 3.23 0 0 1 33.8 8.8a3.2 3.2 0 0 1 1.66-2.86 3.6 3.6 0 0 1 1.75-.42c.66 0 1.25.14 1.76.42.52.28.93.66 1.21 1.15.3.49.45 1.06.45 1.7a3.24 3.24 0 0 1-1.66 2.87c-.51.28-1.1.42-1.76.42Zm0-1.28a2 2 0 0 0 .98-.24c.29-.16.51-.4.67-.7.17-.3.26-.66.26-1.06 0-.42-.09-.78-.26-1.07-.16-.3-.38-.54-.67-.7a1.97 1.97 0 0 0-.97-.24 1.76 1.76 0 0 0-1.66.94c-.16.3-.25.65-.25 1.07 0 .4.09.76.25 1.06a1.76 1.76 0 0 0 1.65.94ZM41.2 14.31l.15-.12.77-.66c.19-.18.35-.36.48-.55.13-.19.2-.38.2-.55a.49.49 0 0 0-.1-.32c-.06-.08-.16-.12-.29-.12a.36.36 0 0 0-.3.14c-.06.1-.1.23-.1.4h-.82c0-.28.06-.51.18-.7.11-.2.26-.34.45-.43.19-.09.4-.13.63-.13.4 0 .7.1.9.3.2.2.3.47.3.8 0 .36-.12.69-.37 1-.24.3-.55.6-.93.89h1.35v.69h-2.5v-.63Z"/>
</svg>
